<svg aria-hidden="true" style="position: absolute; width: 0; height: 0; overflow: hidden;" version="1.1" xmlns="http://www.w3.org/2000/svg" xmlns:xlink="http://www.w3.org/1999/xlink">
<defs>

<symbol id="icon-NavArrow" viewBox="0 0 21 32">
<path fill="#fff" style="fill: var(--color1, #fff)" d="M2.667 0c6.248 6.248 16 16 16 16s-9.752 9.752-16 16z"></path>
</symbol>

<symbol id="icon-close" viewBox="0 0 32 32">
<path fill="none" stroke="#5e5e61" style="stroke: var(--color1, #5e5e61)" stroke-linejoin="round" stroke-linecap="round" stroke-miterlimit="4" stroke-width="1.2308" d="M30.769 1.231l-29.538 29.538M1.231 1.231l29.538 29.538"></path>
</symbol>

<symbol id="icon-filter" viewBox="0 0 30 32">
<path fill="none" stroke="#fff" style="stroke: var(--color2, #fff)" stroke-linejoin="round" stroke-linecap="round" stroke-miterlimit="4" stroke-width="3.3684" d="M1.684 1.684h26.947v3.658c-0 0.893-0.355 1.75-0.987 2.381l-7.434 7.434v11.789l-10.105 3.368v-14.316l-7.545-8.3c-0.563-0.62-0.876-1.428-0.876-2.265v-3.751z"></path>
</symbol>

<symbol id="icon-sorter" viewBox="0 0 43 32">
<path fill="none" stroke="#fff" style="stroke: var(--color2, #fff)" stroke-linejoin="round" stroke-linecap="round" stroke-miterlimit="4" stroke-width="4.5714" d="M2.286 2.286h20.571M2.286 16h16M2.286 29.714h16M27.429 22.857l6.857 6.857M34.286 29.714l6.857-6.857M34.286 29.714v-27.429"></path>
</symbol>

<symbol id="icon-search" viewBox="0 0 32 32">
<path fill="none" stroke="#fff" style="stroke: var(--color2, #fff)" stroke-linejoin="round" stroke-linecap="round" stroke-miterlimit="4" stroke-width="3.2" d="M30.4 30.4l-9.6-9.6M1.6 12.8c0 1.471 0.29 2.927 0.853 4.286s1.388 2.593 2.428 3.633c1.040 1.040 2.275 1.865 3.634 2.428s2.815 0.852 4.286 0.852 2.927-0.29 4.286-0.852c1.359-0.563 2.593-1.388 3.633-2.428s1.865-2.275 2.428-3.633c0.563-1.359 0.852-2.815 0.852-4.286s-0.29-2.927-0.852-4.286c-0.563-1.359-1.388-2.594-2.428-3.634s-2.275-1.865-3.633-2.428-2.815-0.853-4.286-0.853c-1.471 0-2.927 0.29-4.286 0.853s-2.594 1.388-3.634 2.428c-1.040 1.040-1.865 2.275-2.428 3.634s-0.853 2.815-0.853 4.286z"></path>
</symbol>

<symbol id="icon-arrow-left" viewBox="0 0 20 32">
<path fill="none" stroke="#a6a6aa" style="stroke: var(--color2, #a6a6aa)" stroke-linejoin="round" stroke-linecap="round" stroke-miterlimit="4" stroke-width="6" d="M16 4l-12 12 12 12"></path>
</symbol>

<symbol id="icon-arrow-right" viewBox="0 0 20 32">
<path fill="none" stroke="#a6a6aa" style="stroke: var(--color2, #a6a6aa)" stroke-linejoin="round" stroke-linecap="round" stroke-miterlimit="4" stroke-width="6" d="M4 28l12-12-12-12"></path>
</symbol>

<symbol id="icon-long-arrow-right" viewBox="0 0 79 32">
<path d="M78.769 16.297l-24.615-14.212v28.424l24.615-14.212zM0 18.759h56.615v-4.923h-56.615v4.923z"></path>
</symbol>

<symbol id="icon-plus" viewBox="0 0 32 32">
<path stroke-linejoin="round" stroke-linecap="round" stroke-miterlimit="4" stroke-width="3.5556" d="M16 1.778v28.444M1.778 16h28.444"></path>
</symbol>

<symbol id="icon-phone" viewBox="0 0 27 32">
<path d="M22.194 21.645c-0.106 0.423-0.267 0.831-0.48 1.211-0.115 0.183-0.241 0.358-0.377 0.526-0.241 0.281-0.509 0.537-0.8 0.766-0.299 0.214-0.621 0.395-0.96 0.537-0.903 0.381-1.905 0.461-2.857 0.229-0.201-0.032-0.399-0.078-0.594-0.137-0.434-0.149-0.869-0.297-1.291-0.469s-0.674-0.309-1.017-0.48l-0.857-0.457c-0.24-0.149-0.491-0.297-0.72-0.457l-1.349-0.96-0.503-0.4-1.143-1.006c-0.32-0.286-0.629-0.594-0.926-0.903s-0.617-0.651-0.926-0.983l-0.766-0.891-1.143-1.44c-0.229-0.297-0.457-0.594-0.674-0.903-0.331-0.48-0.663-0.96-0.96-1.451s-0.571-0.891-0.8-1.349c-0.401-0.725-0.661-1.52-0.766-2.343-0.074-0.649 0.005-1.306 0.229-1.92 0.207-0.532 0.518-1.017 0.914-1.429 0.336-0.357 0.721-0.665 1.143-0.914 0.32-0.188 0.662-0.338 1.017-0.446 0.128-0.039 0.263-0.047 0.394-0.023s0.255 0.079 0.36 0.16c0.251 0.229 0.491 0.48 0.743 0.731l0.914 0.857 1.886 1.84 0.96 0.949c0.119 0.092 0.214 0.21 0.28 0.344s0.099 0.283 0.097 0.433c-0.013 0.092-0.033 0.184-0.057 0.274-0.142 0.475-0.362 0.923-0.651 1.326-0.259 0.372-0.58 0.696-0.949 0.96l-0.731 0.48v0.091l0.743 0.777 0.971 0.983 0.937 0.937c0.32 0.309 0.64 0.629 0.971 0.926l1.143 0.971c0.248-0.524 0.602-0.991 1.040-1.371 0.097-0.097 0.2-0.189 0.309-0.274 0.387-0.294 0.819-0.521 1.28-0.674 0.107-0.041 0.218-0.072 0.331-0.091 0.127-0.017 0.256-0.004 0.377 0.038s0.231 0.111 0.32 0.202l0.354 0.354 0.846 0.8 0.949 0.937 0.994 0.971 0.937 0.926c0.194 0.183 0.377 0.377 0.56 0.571 0.121 0.132 0.194 0.301 0.206 0.48l0.091 0.183z"></path>
<path fill="none" stroke="#020b11" style="stroke: var(--color2, #020b11)" stroke-linejoin="round" stroke-linecap="round" stroke-miterlimit="4" stroke-width="1.1429" d="M14.011 6.229c1.797 0.048 3.503 0.799 4.751 2.092s1.939 3.025 1.923 4.822"></path>
<path fill="none" stroke="#020b11" style="stroke: var(--color2, #020b11)" stroke-linejoin="round" stroke-linecap="round" stroke-miterlimit="4" stroke-width="1.1429" d="M14.161 2.857c0 0 9.28 0.080 9.84 10.217"></path>
<path fill="none" stroke="#020b11" style="stroke: var(--color2, #020b11)" stroke-linejoin="round" stroke-linecap="round" stroke-miterlimit="4" stroke-width="1.1429" d="M12.891 9.348c1.229 0.030 2.397 0.541 3.252 1.424s1.329 2.066 1.32 3.296"></path>
</symbol>

<symbol id="icon-mail" viewBox="0 0 39 32">
<path fill="none" stroke="#fff" style="stroke: var(--color1, #fff)" stroke-linejoin="round" stroke-linecap="round" stroke-miterlimit="4" stroke-width="3.3684" d="M5.473 2.947h26.943c1.852 0 3.368 1.516 3.368 3.368v20.207c0 1.852-1.516 3.368-3.368 3.368h-26.943c-1.852 0-3.368-1.516-3.368-3.368v-20.207c0-1.852 1.516-3.368 3.368-3.368z"></path>
<path fill="none" stroke="#fff" style="stroke: var(--color1, #fff)" stroke-linejoin="round" stroke-linecap="round" stroke-miterlimit="4" stroke-width="3.3684" d="M35.784 6.316l-16.84 11.788-16.839-11.788"></path>
</symbol>

<symbol id="icon-telegram" viewBox="0 0 40 32">
<path fill="none" stroke="#fff" style="stroke: var(--color1, #fff)" stroke-linejoin="round" stroke-linecap="round" stroke-miterlimit="4" stroke-width="3.7647" d="M37.647 1.882l-35.765 14.118 13.176 1.882M37.647 1.882l-4.706 28.235-17.882-12.235M37.647 1.882l-22.588 16M15.059 17.882v10.353l6.116-6.168"></path>
</symbol>

<symbol id="icon-instagram" viewBox="0 0 32 32">
<path fill="none" stroke="#fff" style="stroke: var(--color1, #fff)" stroke-linejoin="round" stroke-linecap="round" stroke-miterlimit="4" stroke-width="2.7826" d="M22.611 1.739h-13.915c-3.842 0-6.957 3.115-6.957 6.957v13.915c0 3.842 3.115 6.957 6.957 6.957h13.915c3.842 0 6.957-3.115 6.957-6.957v-13.915c0-3.842-3.115-6.957-6.957-6.957z"></path>
<path fill="none" stroke="#fff" style="stroke: var(--color1, #fff)" stroke-linejoin="round" stroke-linecap="round" stroke-miterlimit="4" stroke-width="2.7826" d="M21.22 14.778c0.172 1.158-0.026 2.341-0.565 3.38s-1.392 1.882-2.438 2.408-2.231 0.71-3.387 0.524c-1.156-0.186-2.224-0.732-3.051-1.559s-1.374-1.896-1.56-3.051c-0.186-1.156-0.003-2.341 0.524-3.387s1.369-1.899 2.408-2.438c1.039-0.539 2.222-0.737 3.38-0.565 1.181 0.175 2.275 0.726 3.119 1.57s1.395 1.938 1.57 3.119z"></path>
<path fill="none" stroke="#fff" style="stroke: var(--color1, #fff)" stroke-linejoin="round" stroke-linecap="round" stroke-miterlimit="4" stroke-width="2.7826" d="M23.307 8.001h0.014"></path>
</symbol>

<symbol id="icon-linkedin" viewBox="0 0 33 32">
<path fill="none" stroke="#fff" style="stroke: var(--color1, #fff)" stroke-linejoin="round" stroke-linecap="round" stroke-miterlimit="4" stroke-width="2.7826" d="M22.942 11.024c2.37 0 4.644 0.942 6.32 2.618s2.618 3.949 2.618 6.32v10.427h-5.958v-10.427c0-0.79-0.314-1.548-0.872-2.107s-1.316-0.873-2.107-0.873-1.548 0.314-2.107 0.873c-0.559 0.559-0.873 1.316-0.873 2.107v10.427h-5.958v-10.427c0-2.37 0.942-4.644 2.618-6.32s3.949-2.618 6.32-2.618z"></path>
<path fill="none" stroke="#fff" style="stroke: var(--color1, #fff)" stroke-linejoin="round" stroke-linecap="round" stroke-miterlimit="4" stroke-width="2.7826" d="M8.045 12.514h-5.958v17.875h5.958v-17.875z"></path>
<path fill="none" stroke="#fff" style="stroke: var(--color1, #fff)" stroke-linejoin="round" stroke-linecap="round" stroke-miterlimit="4" stroke-width="2.7826" d="M5.066 8.045c1.645 0 2.979-1.334 2.979-2.979s-1.334-2.979-2.979-2.979c-1.645 0-2.979 1.334-2.979 2.979s1.334 2.979 2.979 2.979z"></path>
</symbol>

<symbol id="icon-facebook" viewBox="0 0 19 32">
<path fill="none" stroke="#fff" style="stroke: var(--color1, #fff)" stroke-linejoin="round" stroke-linecap="round" stroke-miterlimit="4" stroke-width="2.7826" d="M17.743 1.739h-4.175c-1.845 0-3.615 0.733-4.92 2.038s-2.038 3.075-2.038 4.92v4.175h-4.175v5.566h4.175v11.133h5.566v-11.133h4.175l1.392-5.566h-5.566v-4.175c0-0.369 0.147-0.723 0.408-0.984s0.615-0.408 0.984-0.408h4.175v-5.566z"></path>
</symbol>

<symbol id="icon-burger-menu" viewBox="0 0 42 32">
<path fill="none" stroke="#fff" style="stroke: var(--color1, #fff)" stroke-linejoin="round" stroke-linecap="round" stroke-miterlimit="4" stroke-width="2.4615" d="M1.231 1.231h39.385M1.231 16h39.385M1.231 30.769h39.385"></path>
</symbol>

<symbol id="icon-half-burger-menu" viewBox="0 0 42 32">
<path fill="none" stroke="#fff" style="stroke: var(--color1, #fff)" stroke-linejoin="round" stroke-linecap="round" stroke-miterlimit="4" stroke-width="2.4615" d="M1.231 1.231h39.385M1.231 16h26.154M1.231 30.769h16.001"></path>
</symbol>

<symbol id="icon-snowflake" viewBox="0 0 26 32">
<path fill="none" stroke="#d50000" style="stroke: var(--color1, #d50000)" stroke-linejoin="round" stroke-linecap="round" stroke-miterlimit="4" stroke-width="3.2" d="M12.801 16l10.667-6M12.801 16v12M12.801 16l-10.667-6M12.801 16l10.667 6M12.801 16v-12M12.801 16l-10.667 6"></path>
</symbol>

<symbol id="icon-check-mark" viewBox="0 0 46 32">
<path fill="#05ff00" style="fill: var(--color2, #05ff00)" d="M17.42 30.591l-13.244-13.232c-0.208-0.243-0.317-0.555-0.304-0.875s0.145-0.623 0.371-0.849c0.226-0.226 0.529-0.359 0.849-0.371s0.632 0.096 0.875 0.304l11.429 11.429 22.337-22.311c0.243-0.208 0.555-0.317 0.875-0.304s0.623 0.145 0.849 0.371c0.226 0.226 0.359 0.529 0.371 0.849s-0.096 0.632-0.304 0.875l-24.102 24.114z"></path>
</symbol>

<symbol id="icon-checked" viewBox="0 0 46 32">
<path fill="#ffffff" style="fill: var(--color2, #ffffff)" d="M17.42 30.591l-13.244-13.232c-0.208-0.243-0.317-0.555-0.304-0.875s0.145-0.623 0.371-0.849c0.226-0.226 0.529-0.359 0.849-0.371s0.632 0.096 0.875 0.304l11.429 11.429 22.337-22.311c0.243-0.208 0.555-0.317 0.875-0.304s0.623 0.145 0.849 0.371c0.226 0.226 0.359 0.529 0.371 0.849s-0.096 0.632-0.304 0.875l-24.102 24.114z"></path>
</symbol>

<symbol id="icon-exclamation" viewBox="0 0 5 32">
<path fill="#d50000" style="fill: var(--color1, #d50000)" d="M2.461 0.821c0.906 0 1.641 0.735 1.641 1.641v20.513c0 0.906-0.735 1.641-1.641 1.641s-1.641-0.735-1.641-1.641v-20.513c0-0.906 0.735-1.641 1.641-1.641zM0.82 30.362c0-0.908 0.736-1.644 1.644-1.644s1.644 0.736 1.644 1.644c0 0.908-0.736 1.644-1.644 1.644s-1.644-0.736-1.644-1.644z"></path>
</symbol>

<symbol id="icon-arrowReadMore" viewBox="0 0 85 32">

<symbol id="icon-delete" viewBox="0 0 30 32">
<path stroke-linejoin="round" stroke-linecap="round" stroke-miterlimit="4" stroke-width="1.8462" d="M1.644 7.795h26.256M11.49 14.359v9.846M18.055 14.359v9.846M3.285 7.795l1.641 19.692c0 0.871 0.346 1.705 0.961 2.321s1.45 0.961 2.321 0.961h13.128c0.871 0 1.705-0.346 2.321-0.961s0.961-1.45 0.961-2.321l1.641-19.692M9.849 7.795v-4.923c0-0.435 0.173-0.853 0.481-1.16s0.725-0.481 1.16-0.481h6.564c0.435 0 0.853 0.173 1.16 0.481s0.481 0.725 0.481 1.16v4.923"></path>
</symbol>

<symbol id="icon-edit" viewBox="0 0 32 32">
<path stroke-linejoin="round" stroke-linecap="round" stroke-miterlimit="4" stroke-width="1.92" d="M6.83 8.107h-1.707c-0.905 0-1.773 0.36-2.414 1s-1 1.508-1 2.414v15.36c0 0.905 0.36 1.774 1 2.414s1.508 1 2.414 1h15.36c0.905 0 1.773-0.36 2.414-1s1-1.508 1-2.414v-1.707M22.19 4.694l5.12 5.12M29.674 7.399c0.672-0.672 1.050-1.584 1.050-2.534s-0.378-1.862-1.050-2.534c-0.672-0.672-1.584-1.050-2.534-1.050s-1.862 0.378-2.534 1.050l-14.362 14.31v5.12h5.12l14.31-14.362z"></path>
</symbol>

<path  d="M85.333 16l-26.667-15.396v30.792l26.667-15.396zM0 18.667h61.333v-5.333h-61.333v5.333z"></path>
</symbol>


<symbol id="icon-totop" viewBox="0 0 18 28">
<path d="M16.797 20.5c0 0.125-0.063 0.266-0.156 0.359l-0.781 0.781c-0.094 0.094-0.219 0.156-0.359 0.156-0.125 0-0.266-0.063-0.359-0.156l-6.141-6.141-6.141 6.141c-0.094 0.094-0.234 0.156-0.359 0.156s-0.266-0.063-0.359-0.156l-0.781-0.781c-0.094-0.094-0.156-0.234-0.156-0.359s0.063-0.266 0.156-0.359l7.281-7.281c0.094-0.094 0.234-0.156 0.359-0.156s0.266 0.063 0.359 0.156l7.281 7.281c0.094 0.094 0.156 0.234 0.156 0.359zM16.797 14.5c0 0.125-0.063 0.266-0.156 0.359l-0.781 0.781c-0.094 0.094-0.219 0.156-0.359 0.156-0.125 0-0.266-0.063-0.359-0.156l-6.141-6.141-6.141 6.141c-0.094 0.094-0.234 0.156-0.359 0.156s-0.266-0.063-0.359-0.156l-0.781-0.781c-0.094-0.094-0.156-0.234-0.156-0.359s0.063-0.266 0.156-0.359l7.281-7.281c0.094-0.094 0.234-0.156 0.359-0.156s0.266 0.063 0.359 0.156l7.281 7.281c0.094 0.094 0.156 0.234 0.156 0.359z"></path>
</symbol>
</defs>
</svg>
